mtllib test.mtl
# vertices
v -64 -16 -64
v -64 -16 64
v -64 16 64
v -64 16 -64
v 64 16 64
v 64 -16 64
v 64 -16 -64
v 64 16 -64

# texture coordinates
vt 2 -0.5
vt -2 -0.5
vt -2 0.5
vt 2 0.5
vt 2 -2
vt -2 -2
vt -2 2
vt 2 2

# normals
vn -1 0 -0
vn 0 0 1
vn 0 -1 -0
vn 0 1 -0
vn 0 0 -1
vn 1 0 -0

o entity0_brush0
usemtl __TB_empty
f  1/1/1  2/2/1  3/3/1  4/4/1
usemtl __TB_empty
f  5/4/2  3/3/2  2/2/2  6/1/2
usemtl __TB_empty
f  6/5/3  2/6/3  1/7/3  7/8/3
usemtl __TB_empty
f  8/8/4  4/7/4  3/6/4  5/5/4
usemtl __TB_empty
f  7/1/5  1/2/5  4/3/5  8/4/5
usemtl __TB_empty
f  8/4/6  5/3/6  6/2/6  7/1/6

