{
	"asset":{
		"generator":"Khronos glTF Blender I/O v4.5.47",
		"version":"2.0"
	},
	"scene":0,
	"scenes":[
		{
			"name":"Scene",
			"nodes":[
				0
			]
		}
	],
	"nodes":[
		{
			"mesh":0,
			"name":"Icosphere"
		}
	],
	"meshes":[
		{
			"name":"Icosphere",
			"primitives":[
				{
					"attributes":{
						"POSITION":0,
						"NORMAL":1,
						"TEXCOORD_0":2
					},
					"indices":3
				}
			]
		}
	],
	"accessors":[
		{
			"bufferView":0,
			"componentType":5126,
			"count":15360,
			"max":[
				1,
				1,
				0.9999999403953552
			],
			"min":[
				-0.9999999403953552,
				-1,
				-0.9999999403953552
			],
			"type":"VEC3"
		},
		{
			"bufferView":1,
			"componentType":5126,
			"count":15360,
			"type":"VEC3"
		},
		{
			"bufferView":2,
			"componentType":5126,
			"count":15360,
			"type":"VEC2"
		},
		{
			"bufferView":3,
			"componentType":5123,
			"count":15360,
			"type":"SCALAR"
		}
	],
	"bufferViews":[
		{
			"buffer":0,
			"byteLength":184320,
			"byteOffset":0,
			"target":34962
		},
		{
			"buffer":0,
			"byteLength":184320,
			"byteOffset":184320,
			"target":34962
		},
		{
			"buffer":0,
			"byteLength":122880,
			"byteOffset":368640,
			"target":34962
		},
		{
			"buffer":0,
			"byteLength":30720,
			"byteOffset":491520,
			"target":34963
		}
	],
	"buffers":[
		{
			"byteLength":522240,
			"uri":"crude_physics_sphere_collision_shape.bin"
		}
	]
}
