{
	"asset":{
		"generator":"Khronos glTF Blender I/O v4.5.47",
		"version":"2.0"
	},
	"extensionsUsed":[
		"KHR_materials_emissive_strength"
	],
	"scene":0,
	"scenes":[
		{
			"name":"Scene",
			"nodes":[
				0
			]
		}
	],
	"nodes":[
		{
			"mesh":0,
			"name":"Extruded.004",
			"translation":[
				-6.653531551361084,
				0,
				0.19642923772335052
			]
		}
	],
	"materials":[
		{
			"doubleSided":true,
			"name":"Material.004",
			"pbrMetallicRoughness":{
				"baseColorFactor":[
					0,
					0,
					0,
					1
				],
				"metallicFactor":0,
				"roughnessFactor":0.5
			}
		},
		{
			"doubleSided":true,
			"emissiveFactor":[
				1,
				0.004600722130461077,
				0.0529473716970836
			],
			"extensions":{
				"KHR_materials_emissive_strength":{
					"emissiveStrength":3.9955341815948486
				}
			},
			"name":"Material.009",
			"pbrMetallicRoughness":{
				"baseColorFactor":[
					0.8001017570495605,
					0.0038427887484431267,
					0.04165611416101456,
					1
				],
				"metallicFactor":0,
				"roughnessFactor":0.5
			}
		},
		{
			"doubleSided":true,
			"emissiveFactor":[
				1,
				0.08569412748228733,
				0.14959196416024478
			],
			"extensions":{
				"KHR_materials_emissive_strength":{
					"emissiveStrength":3.9955341815948486
				}
			},
			"name":"Material.002",
			"pbrMetallicRoughness":{
				"baseColorFactor":[
					0.8001810312271118,
					0.06906615197658539,
					0.11889268457889557,
					1
				],
				"metallicFactor":0
			}
		},
		{
			"doubleSided":true,
			"emissiveFactor":[
				1,
				0.5641030498878628,
				0.0622028277764965
			],
			"extensions":{
				"KHR_materials_emissive_strength":{
					"emissiveStrength":3.9955341815948486
				}
			},
			"name":"Material.001",
			"pbrMetallicRoughness":{
				"baseColorFactor":[
					0.8000229597091675,
					0.4522569477558136,
					0.050073668360710144,
					1
				],
				"metallicFactor":0
			}
		},
		{
			"doubleSided":true,
			"emissiveFactor":[
				1,
				0.5595344248694376,
				0.06503653288081149
			],
			"extensions":{
				"KHR_materials_emissive_strength":{
					"emissiveStrength":3.36228609085083
				}
			},
			"name":"Material.010",
			"pbrMetallicRoughness":{
				"baseColorFactor":[
					0.669921875,
					0.3779296875,
					0.04425048828125,
					1
				],
				"metallicFactor":0
			}
		},
		{
			"doubleSided":true,
			"emissiveFactor":[
				1,
				1,
				1
			],
			"extensions":{
				"KHR_materials_emissive_strength":{
					"emissiveStrength":1.043166145682335
				}
			},
			"name":"Material.003",
			"pbrMetallicRoughness":{
				"baseColorFactor":[
					0.20822036266326904,
					0.20822036266326904,
					0.20822036266326904,
					1
				],
				"metallicFactor":0
			}
		},
		{
			"doubleSided":true,
			"emissiveFactor":[
				1,
				1,
				1
			],
			"extensions":{
				"KHR_materials_emissive_strength":{
					"emissiveStrength":5.000120401382446
				}
			},
			"name":"Material.006",
			"pbrMetallicRoughness":{
				"metallicFactor":0
			}
		},
		{
			"doubleSided":true,
			"emissiveFactor":[
				0.004551774472929537,
				0.004551774472929537,
				0.004551774472929537
			],
			"name":"Material.005",
			"pbrMetallicRoughness":{
				"baseColorFactor":[
					0.0009789882460609078,
					0.0009789882460609078,
					0.0009789882460609078,
					1
				],
				"metallicFactor":0
			}
		},
		{
			"doubleSided":true,
			"emissiveFactor":[
				0.3757178783416748,
				0.3757178783416748,
				0.3757178783416748
			],
			"name":"Material.007",
			"pbrMetallicRoughness":{
				"baseColorFactor":[
					0,
					0,
					0,
					1
				],
				"metallicFactor":0
			}
		},
		{
			"doubleSided":true,
			"emissiveFactor":[
				1,
				1,
				1
			],
			"extensions":{
				"KHR_materials_emissive_strength":{
					"emissiveStrength":5
				}
			},
			"name":"Material.008",
			"pbrMetallicRoughness":{
				"baseColorFactor":[
					0.800000011920929,
					0.800000011920929,
					0.800000011920929,
					1
				],
				"metallicFactor":0
			}
		},
		{
			"doubleSided":true,
			"emissiveFactor":[
				1,
				1,
				1
			],
			"extensions":{
				"KHR_materials_emissive_strength":{
					"emissiveStrength":1.7820195853710175
				}
			},
			"name":"Material.011",
			"pbrMetallicRoughness":{
				"baseColorFactor":[
					0.3583170175552368,
					0.3583170175552368,
					0.3583170175552368,
					1
				],
				"metallicFactor":0
			}
		}
	],
	"meshes":[
		{
			"name":"Extruded.004",
			"primitives":[
				{
					"attributes":{
						"POSITION":0,
						"NORMAL":1
					},
					"indices":2,
					"material":0
				},
				{
					"attributes":{
						"POSITION":3,
						"NORMAL":4
					},
					"indices":5,
					"material":1
				},
				{
					"attributes":{
						"POSITION":6,
						"NORMAL":7
					},
					"indices":8,
					"material":2
				},
				{
					"attributes":{
						"POSITION":9,
						"NORMAL":10
					},
					"indices":11,
					"material":3
				},
				{
					"attributes":{
						"POSITION":12,
						"NORMAL":13
					},
					"indices":14,
					"material":4
				},
				{
					"attributes":{
						"POSITION":15,
						"NORMAL":16
					},
					"indices":17,
					"material":5
				},
				{
					"attributes":{
						"POSITION":18,
						"NORMAL":19
					},
					"indices":20,
					"material":6
				},
				{
					"attributes":{
						"POSITION":21,
						"NORMAL":22
					},
					"indices":23,
					"material":7
				},
				{
					"attributes":{
						"POSITION":24,
						"NORMAL":25
					},
					"indices":26,
					"material":8
				},
				{
					"attributes":{
						"POSITION":27,
						"NORMAL":28
					},
					"indices":29,
					"material":9
				},
				{
					"attributes":{
						"POSITION":30,
						"NORMAL":31
					},
					"indices":32,
					"material":10
				}
			]
		}
	],
	"accessors":[
		{
			"bufferView":0,
			"componentType":5126,
			"count":392,
			"max":[
				6.747946262359619,
				0.5796937346458435,
				0.05191013216972351
			],
			"min":[
				6.577632427215576,
				0.4094298481941223,
				-0.028130237013101578
			],
			"type":"VEC3"
		},
		{
			"bufferView":1,
			"componentType":5126,
			"count":392,
			"type":"VEC3"
		},
		{
			"bufferView":2,
			"componentType":5123,
			"count":1170,
			"type":"SCALAR"
		},
		{
			"bufferView":3,
			"componentType":5126,
			"count":98,
			"max":[
				7.035248279571533,
				0.05797569453716278,
				0
			],
			"min":[
				6.273462772369385,
				-0.014908110722899437,
				-0.5125165581703186
			],
			"type":"VEC3"
		},
		{
			"bufferView":4,
			"componentType":5126,
			"count":98,
			"type":"VEC3"
		},
		{
			"bufferView":5,
			"componentType":5123,
			"count":252,
			"type":"SCALAR"
		},
		{
			"bufferView":6,
			"componentType":5126,
			"count":553,
			"max":[
				7.3480119705200195,
				1.334957242012024,
				0
			],
			"min":[
				5.937904357910156,
				0.05797569453716278,
				-0.5125165581703186
			],
			"type":"VEC3"
		},
		{
			"bufferView":7,
			"componentType":5126,
			"count":553,
			"type":"VEC3"
		},
		{
			"bufferView":8,
			"componentType":5123,
			"count":1476,
			"type":"SCALAR"
		},
		{
			"bufferView":9,
			"componentType":5126,
			"count":352,
			"max":[
				7.405987739562988,
				1.2929328680038452,
				0.10614407062530518
			],
			"min":[
				5.8799285888671875,
				0,
				0
			],
			"type":"VEC3"
		},
		{
			"bufferView":10,
			"componentType":5126,
			"count":352,
			"type":"VEC3"
		},
		{
			"bufferView":11,
			"componentType":5123,
			"count":960,
			"type":"SCALAR"
		},
		{
			"bufferView":12,
			"componentType":5126,
			"count":332,
			"max":[
				7.3480119705200195,
				0.916124165058136,
				0.09185798466205597
			],
			"min":[
				5.937904357910156,
				0.8521168828010559,
				0.02785070799291134
			],
			"type":"VEC3"
		},
		{
			"bufferView":13,
			"componentType":5126,
			"count":332,
			"type":"VEC3"
		},
		{
			"bufferView":14,
			"componentType":5123,
			"count":996,
			"type":"SCALAR"
		},
		{
			"bufferView":15,
			"componentType":5126,
			"count":712,
			"max":[
				6.973299980163574,
				0.8050227165222168,
				0.04243852198123932
			],
			"min":[
				6.352278709411621,
				0.1840014010667801,
				0
			],
			"type":"VEC3"
		},
		{
			"bufferView":16,
			"componentType":5126,
			"count":712,
			"type":"VEC3"
		},
		{
			"bufferView":17,
			"componentType":5123,
			"count":2136,
			"type":"SCALAR"
		},
		{
			"bufferView":18,
			"componentType":5126,
			"count":533,
			"max":[
				7.417089939117432,
				0.95079106092453,
				-0.23329317569732666
			],
			"min":[
				7.4014153480529785,
				0.7938620448112488,
				-0.24546046555042267
			],
			"type":"VEC3"
		},
		{
			"bufferView":19,
			"componentType":5126,
			"count":533,
			"type":"VEC3"
		},
		{
			"bufferView":20,
			"componentType":5123,
			"count":2052,
			"type":"SCALAR"
		},
		{
			"bufferView":21,
			"componentType":5126,
			"count":994,
			"max":[
				7.4014153480529785,
				0.9658636450767517,
				-0.14070193469524384
			],
			"min":[
				7.3480119705200195,
				0.7751761078834534,
				-0.3313400447368622
			],
			"type":"VEC3"
		},
		{
			"bufferView":22,
			"componentType":5126,
			"count":994,
			"type":"VEC3"
		},
		{
			"bufferView":23,
			"componentType":5123,
			"count":4740,
			"type":"SCALAR"
		},
		{
			"bufferView":24,
			"componentType":5126,
			"count":274,
			"max":[
				7.0023193359375,
				1.2603116035461426,
				-0.15911030769348145
			],
			"min":[
				6.912137508392334,
				1.234957218170166,
				-0.24926745891571045
			],
			"type":"VEC3"
		},
		{
			"bufferView":25,
			"componentType":5126,
			"count":274,
			"type":"VEC3"
		},
		{
			"bufferView":26,
			"componentType":5123,
			"count":816,
			"type":"SCALAR"
		},
		{
			"bufferView":27,
			"componentType":5126,
			"count":352,
			"max":[
				6.961951732635498,
				1.4916445016860962,
				-0.19946564733982086
			],
			"min":[
				6.952505111694336,
				1.2603116035461426,
				-0.20891213417053223
			],
			"type":"VEC3"
		},
		{
			"bufferView":28,
			"componentType":5126,
			"count":352,
			"type":"VEC3"
		},
		{
			"bufferView":29,
			"componentType":5123,
			"count":1701,
			"type":"SCALAR"
		},
		{
			"bufferView":30,
			"componentType":5126,
			"count":6521,
			"max":[
				7.52475643157959,
				1.683005690574646,
				-0.3498619794845581
			],
			"min":[
				5.743758678436279,
				0.8552460074424744,
				-0.41120484471321106
			],
			"type":"VEC3"
		},
		{
			"bufferView":31,
			"componentType":5126,
			"count":6521,
			"type":"VEC3"
		},
		{
			"bufferView":32,
			"componentType":5123,
			"count":32310,
			"type":"SCALAR"
		}
	],
	"bufferViews":[
		{
			"buffer":0,
			"byteLength":4704,
			"byteOffset":0,
			"target":34962
		},
		{
			"buffer":0,
			"byteLength":4704,
			"byteOffset":4704,
			"target":34962
		},
		{
			"buffer":0,
			"byteLength":2340,
			"byteOffset":9408,
			"target":34963
		},
		{
			"buffer":0,
			"byteLength":1176,
			"byteOffset":11748,
			"target":34962
		},
		{
			"buffer":0,
			"byteLength":1176,
			"byteOffset":12924,
			"target":34962
		},
		{
			"buffer":0,
			"byteLength":504,
			"byteOffset":14100,
			"target":34963
		},
		{
			"buffer":0,
			"byteLength":6636,
			"byteOffset":14604,
			"target":34962
		},
		{
			"buffer":0,
			"byteLength":6636,
			"byteOffset":21240,
			"target":34962
		},
		{
			"buffer":0,
			"byteLength":2952,
			"byteOffset":27876,
			"target":34963
		},
		{
			"buffer":0,
			"byteLength":4224,
			"byteOffset":30828,
			"target":34962
		},
		{
			"buffer":0,
			"byteLength":4224,
			"byteOffset":35052,
			"target":34962
		},
		{
			"buffer":0,
			"byteLength":1920,
			"byteOffset":39276,
			"target":34963
		},
		{
			"buffer":0,
			"byteLength":3984,
			"byteOffset":41196,
			"target":34962
		},
		{
			"buffer":0,
			"byteLength":3984,
			"byteOffset":45180,
			"target":34962
		},
		{
			"buffer":0,
			"byteLength":1992,
			"byteOffset":49164,
			"target":34963
		},
		{
			"buffer":0,
			"byteLength":8544,
			"byteOffset":51156,
			"target":34962
		},
		{
			"buffer":0,
			"byteLength":8544,
			"byteOffset":59700,
			"target":34962
		},
		{
			"buffer":0,
			"byteLength":4272,
			"byteOffset":68244,
			"target":34963
		},
		{
			"buffer":0,
			"byteLength":6396,
			"byteOffset":72516,
			"target":34962
		},
		{
			"buffer":0,
			"byteLength":6396,
			"byteOffset":78912,
			"target":34962
		},
		{
			"buffer":0,
			"byteLength":4104,
			"byteOffset":85308,
			"target":34963
		},
		{
			"buffer":0,
			"byteLength":11928,
			"byteOffset":89412,
			"target":34962
		},
		{
			"buffer":0,
			"byteLength":11928,
			"byteOffset":101340,
			"target":34962
		},
		{
			"buffer":0,
			"byteLength":9480,
			"byteOffset":113268,
			"target":34963
		},
		{
			"buffer":0,
			"byteLength":3288,
			"byteOffset":122748,
			"target":34962
		},
		{
			"buffer":0,
			"byteLength":3288,
			"byteOffset":126036,
			"target":34962
		},
		{
			"buffer":0,
			"byteLength":1632,
			"byteOffset":129324,
			"target":34963
		},
		{
			"buffer":0,
			"byteLength":4224,
			"byteOffset":130956,
			"target":34962
		},
		{
			"buffer":0,
			"byteLength":4224,
			"byteOffset":135180,
			"target":34962
		},
		{
			"buffer":0,
			"byteLength":3402,
			"byteOffset":139404,
			"target":34963
		},
		{
			"buffer":0,
			"byteLength":78252,
			"byteOffset":142808,
			"target":34962
		},
		{
			"buffer":0,
			"byteLength":78252,
			"byteOffset":221060,
			"target":34962
		},
		{
			"buffer":0,
			"byteLength":64620,
			"byteOffset":299312,
			"target":34963
		}
	],
	"buffers":[
		{
			"byteLength":363932,
			"uri":"crude_audio_player.bin"
		}
	]
}
