{
	"asset":{
		"generator":"Khronos glTF Blender I/O v4.5.47",
		"version":"2.0"
	},
	"extensionsUsed":[
		"KHR_materials_emissive_strength"
	],
	"scene":0,
	"scenes":[
		{
			"name":"Scene",
			"nodes":[
				0
			]
		}
	],
	"nodes":[
		{
			"mesh":0,
			"name":"CAMERA.001",
			"scale":[
				1.552590012550354,
				0.9569071531295776,
				0.713630199432373
			],
			"translation":[
				-0.5138538479804993,
				0,
				1.6450546979904175
			]
		}
	],
	"materials":[
		{
			"doubleSided":true,
			"emissiveFactor":[
				0.022596945986151695,
				1,
				0
			],
			"extensions":{
				"KHR_materials_emissive_strength":{
					"emissiveStrength":5
				}
			},
			"name":"Material.003",
			"pbrMetallicRoughness":{
				"baseColorFactor":[
					0,
					0,
					0,
					1
				]
			}
		},
		{
			"doubleSided":true,
			"emissiveFactor":[
				0.07377149909734726,
				0,
				1
			],
			"extensions":{
				"KHR_materials_emissive_strength":{
					"emissiveStrength":5
				}
			},
			"name":"Material.004",
			"pbrMetallicRoughness":{
				"baseColorFactor":[
					0,
					0,
					0,
					1
				]
			}
		},
		{
			"doubleSided":true,
			"emissiveFactor":[
				1,
				0,
				0.473630428314209
			],
			"extensions":{
				"KHR_materials_emissive_strength":{
					"emissiveStrength":5
				}
			},
			"name":"Material.002",
			"pbrMetallicRoughness":{
				"baseColorFactor":[
					0,
					0,
					0,
					1
				]
			}
		}
	],
	"meshes":[
		{
			"name":"Cube.008",
			"primitives":[
				{
					"attributes":{
						"POSITION":0,
						"NORMAL":1,
						"TEXCOORD_0":2
					},
					"indices":3,
					"material":0
				},
				{
					"attributes":{
						"POSITION":4,
						"NORMAL":5,
						"TEXCOORD_0":6
					},
					"indices":7,
					"material":1
				},
				{
					"attributes":{
						"POSITION":8,
						"NORMAL":9,
						"TEXCOORD_0":10
					},
					"indices":11,
					"material":2
				}
			]
		}
	],
	"accessors":[
		{
			"bufferView":0,
			"componentType":5126,
			"count":237,
			"max":[
				1.1364487409591675,
				1.1698672771453857,
				1
			],
			"min":[
				-0.43211185932159424,
				-1,
				-2.2938132286071777
			],
			"type":"VEC3"
		},
		{
			"bufferView":1,
			"componentType":5126,
			"count":237,
			"type":"VEC3"
		},
		{
			"bufferView":2,
			"componentType":5126,
			"count":237,
			"type":"VEC2"
		},
		{
			"bufferView":3,
			"componentType":5123,
			"count":570,
			"type":"SCALAR"
		},
		{
			"bufferView":4,
			"componentType":5126,
			"count":38,
			"max":[
				0.9997467994689941,
				0.8632980585098267,
				0.9257116317749023
			],
			"min":[
				-0.2954099476337433,
				-0.8632980585098267,
				-2.2938132286071777
			],
			"type":"VEC3"
		},
		{
			"bufferView":5,
			"componentType":5126,
			"count":38,
			"type":"VEC3"
		},
		{
			"bufferView":6,
			"componentType":5126,
			"count":38,
			"type":"VEC2"
		},
		{
			"bufferView":7,
			"componentType":5123,
			"count":102,
			"type":"SCALAR"
		},
		{
			"bufferView":8,
			"componentType":5126,
			"count":721,
			"max":[
				0.8942700028419495,
				0.9119438529014587,
				-1.0075467824935913
			],
			"min":[
				-0.1852562427520752,
				-0.8395929932594299,
				-2.3827474117279053
			],
			"type":"VEC3"
		},
		{
			"bufferView":9,
			"componentType":5126,
			"count":721,
			"type":"VEC3"
		},
		{
			"bufferView":10,
			"componentType":5126,
			"count":721,
			"type":"VEC2"
		},
		{
			"bufferView":11,
			"componentType":5123,
			"count":1344,
			"type":"SCALAR"
		}
	],
	"bufferViews":[
		{
			"buffer":0,
			"byteLength":2844,
			"byteOffset":0,
			"target":34962
		},
		{
			"buffer":0,
			"byteLength":2844,
			"byteOffset":2844,
			"target":34962
		},
		{
			"buffer":0,
			"byteLength":1896,
			"byteOffset":5688,
			"target":34962
		},
		{
			"buffer":0,
			"byteLength":1140,
			"byteOffset":7584,
			"target":34963
		},
		{
			"buffer":0,
			"byteLength":456,
			"byteOffset":8724,
			"target":34962
		},
		{
			"buffer":0,
			"byteLength":456,
			"byteOffset":9180,
			"target":34962
		},
		{
			"buffer":0,
			"byteLength":304,
			"byteOffset":9636,
			"target":34962
		},
		{
			"buffer":0,
			"byteLength":204,
			"byteOffset":9940,
			"target":34963
		},
		{
			"buffer":0,
			"byteLength":8652,
			"byteOffset":10144,
			"target":34962
		},
		{
			"buffer":0,
			"byteLength":8652,
			"byteOffset":18796,
			"target":34962
		},
		{
			"buffer":0,
			"byteLength":5768,
			"byteOffset":27448,
			"target":34962
		},
		{
			"buffer":0,
			"byteLength":2688,
			"byteOffset":33216,
			"target":34963
		}
	],
	"buffers":[
		{
			"byteLength":35904,
			"uri":"crude_camera.bin"
		}
	]
}
