{
	"asset":{
		"generator":"Khronos glTF Blender I/O v4.5.47",
		"version":"2.0"
	},
	"extensionsUsed":[
		"KHR_materials_emissive_strength"
	],
	"scene":0,
	"scenes":[
		{
			"name":"Scene",
			"nodes":[
				0
			]
		}
	],
	"nodes":[
		{
			"mesh":0,
			"name":"Cube.005",
			"rotation":[
				0,
				0.7071068286895752,
				0,
				0.7071068286895752
			],
			"scale":[
				0.0910438597202301,
				0.0910438597202301,
				0.0910438597202301
			],
			"translation":[
				-0.2593613564968109,
				0.027102187275886536,
				-0.07002097368240356
			]
		}
	],
	"materials":[
		{
			"doubleSided":true,
			"emissiveFactor":[
				0.27240632101893425,
				0.07221905048936605,
				0.023885348346084356
			],
			"name":"Material.003",
			"pbrMetallicRoughness":{
				"baseColorFactor":[
					0.05496011674404144,
					0.014287826605141163,
					0.0046064178459346294,
					1
				],
				"metallicFactor":0
			}
		},
		{
			"doubleSided":true,
			"name":"Material",
			"pbrMetallicRoughness":{
				"baseColorFactor":[
					0.22593604028224945,
					0.22593604028224945,
					0.22593604028224945,
					1
				],
				"metallicFactor":0
			}
		},
		{
			"doubleSided":true,
			"emissiveFactor":[
				0.6959175152642942,
				1,
				0
			],
			"extensions":{
				"KHR_materials_emissive_strength":{
					"emissiveStrength":2.079279124736786
				}
			},
			"name":"Material.001",
			"pbrMetallicRoughness":{
				"baseColorFactor":[
					0.10047812759876251,
					0.10047812759876251,
					0.10047812759876251,
					1
				],
				"metallicFactor":0
			}
		},
		{
			"doubleSided":true,
			"emissiveFactor":[
				0.5332548359064039,
				0.9130600764589971,
				1
			],
			"extensions":{
				"KHR_materials_emissive_strength":{
					"emissiveStrength":5.000120401382446
				}
			},
			"name":"Material.002",
			"pbrMetallicRoughness":{
				"baseColorFactor":[
					0.5329959392547607,
					0.9149132966995239,
					1,
					1
				],
				"metallicFactor":0
			}
		}
	],
	"meshes":[
		{
			"name":"Cube.010",
			"primitives":[
				{
					"attributes":{
						"POSITION":0,
						"NORMAL":1,
						"TEXCOORD_0":2
					},
					"indices":3,
					"material":0
				},
				{
					"attributes":{
						"POSITION":4,
						"NORMAL":5,
						"TEXCOORD_0":6
					},
					"indices":7,
					"material":1
				},
				{
					"attributes":{
						"POSITION":8,
						"NORMAL":9,
						"TEXCOORD_0":10
					},
					"indices":11,
					"material":2
				},
				{
					"attributes":{
						"POSITION":12,
						"NORMAL":13,
						"TEXCOORD_0":14
					},
					"indices":15,
					"material":3
				}
			]
		}
	],
	"accessors":[
		{
			"bufferView":0,
			"componentType":5126,
			"count":2664,
			"max":[
				1.1412789821624756,
				4.375436305999756,
				6.463037014007568
			],
			"min":[
				-0.8587210178375244,
				-1.5208815336227417,
				-4.4952497482299805
			],
			"type":"VEC3"
		},
		{
			"bufferView":1,
			"componentType":5126,
			"count":2664,
			"type":"VEC3"
		},
		{
			"bufferView":2,
			"componentType":5126,
			"count":2664,
			"type":"VEC2"
		},
		{
			"bufferView":3,
			"componentType":5123,
			"count":3996,
			"type":"SCALAR"
		},
		{
			"bufferView":4,
			"componentType":5126,
			"count":184,
			"max":[
				2.0769546031951904,
				-1.3074053525924683,
				5.104572772979736
			],
			"min":[
				-1.7834091186523438,
				-6.029791831970215,
				-3.297125816345215
			],
			"type":"VEC3"
		},
		{
			"bufferView":5,
			"componentType":5126,
			"count":184,
			"type":"VEC3"
		},
		{
			"bufferView":6,
			"componentType":5126,
			"count":184,
			"type":"VEC2"
		},
		{
			"bufferView":7,
			"componentType":5123,
			"count":780,
			"type":"SCALAR"
		},
		{
			"bufferView":8,
			"componentType":5126,
			"count":2053,
			"max":[
				1.598813533782959,
				-0.08433735370635986,
				6.114880561828613
			],
			"min":[
				-1.463035225868225,
				-5.775570392608643,
				-4.307411193847656
			],
			"type":"VEC3"
		},
		{
			"bufferView":9,
			"componentType":5126,
			"count":2053,
			"type":"VEC3"
		},
		{
			"bufferView":10,
			"componentType":5126,
			"count":2053,
			"type":"VEC2"
		},
		{
			"bufferView":11,
			"componentType":5123,
			"count":4644,
			"type":"SCALAR"
		},
		{
			"bufferView":12,
			"componentType":5126,
			"count":1056,
			"max":[
				0.8598272800445557,
				4.165765762329102,
				6.127366065979004
			],
			"min":[
				-0.6163451671600342,
				-1.3528125286102295,
				-4.374032974243164
			],
			"type":"VEC3"
		},
		{
			"bufferView":13,
			"componentType":5126,
			"count":1056,
			"type":"VEC3"
		},
		{
			"bufferView":14,
			"componentType":5126,
			"count":1056,
			"type":"VEC2"
		},
		{
			"bufferView":15,
			"componentType":5123,
			"count":3468,
			"type":"SCALAR"
		}
	],
	"bufferViews":[
		{
			"buffer":0,
			"byteLength":31968,
			"byteOffset":0,
			"target":34962
		},
		{
			"buffer":0,
			"byteLength":31968,
			"byteOffset":31968,
			"target":34962
		},
		{
			"buffer":0,
			"byteLength":21312,
			"byteOffset":63936,
			"target":34962
		},
		{
			"buffer":0,
			"byteLength":7992,
			"byteOffset":85248,
			"target":34963
		},
		{
			"buffer":0,
			"byteLength":2208,
			"byteOffset":93240,
			"target":34962
		},
		{
			"buffer":0,
			"byteLength":2208,
			"byteOffset":95448,
			"target":34962
		},
		{
			"buffer":0,
			"byteLength":1472,
			"byteOffset":97656,
			"target":34962
		},
		{
			"buffer":0,
			"byteLength":1560,
			"byteOffset":99128,
			"target":34963
		},
		{
			"buffer":0,
			"byteLength":24636,
			"byteOffset":100688,
			"target":34962
		},
		{
			"buffer":0,
			"byteLength":24636,
			"byteOffset":125324,
			"target":34962
		},
		{
			"buffer":0,
			"byteLength":16424,
			"byteOffset":149960,
			"target":34962
		},
		{
			"buffer":0,
			"byteLength":9288,
			"byteOffset":166384,
			"target":34963
		},
		{
			"buffer":0,
			"byteLength":12672,
			"byteOffset":175672,
			"target":34962
		},
		{
			"buffer":0,
			"byteLength":12672,
			"byteOffset":188344,
			"target":34962
		},
		{
			"buffer":0,
			"byteLength":8448,
			"byteOffset":201016,
			"target":34962
		},
		{
			"buffer":0,
			"byteLength":6936,
			"byteOffset":209464,
			"target":34963
		}
	],
	"buffers":[
		{
			"byteLength":216400,
			"uri":"crude_audio_listener.bin"
		}
	]
}
