{
	"asset":{
		"generator":"Khronos glTF Blender I/O v4.5.47",
		"version":"2.0"
	},
	"scene":0,
	"scenes":[
		{
			"name":"Scene",
			"nodes":[
				0,
				1,
				2,
				3,
				4,
				5
			]
		}
	],
	"nodes":[
		{
			"name":"Empty.001",
			"rotation":[
				0.70710688829422,
				0,
				0,
				0.7071066498756409
			],
			"translation":[
				0.21889987587928772,
				2.239514112472534,
				-1.6501682996749878
			]
		},
		{
			"name":"Empty.002",
			"rotation":[
				0.5,
				0.5,
				-0.5,
				0.5
			],
			"translation":[
				-2.795182943344116,
				2.195988655090332,
				-0.15154653787612915
			]
		},
		{
			"mesh":0,
			"name":"Enemy",
			"scale":[
				1.842266321182251,
				1.842266321182251,
				1.842266321182251
			],
			"translation":[
				0.040601976215839386,
				2.216867446899414,
				0
			]
		},
		{
			"mesh":1,
			"name":"Eye.1",
			"scale":[
				1.842266321182251,
				1.842266321182251,
				1.842266321182251
			],
			"translation":[
				0.8371425867080688,
				3.627885341644287,
				1.4275628328323364
			]
		},
		{
			"mesh":2,
			"name":"Eye.2",
			"scale":[
				1.842266321182251,
				1.842266321182251,
				1.842266321182251
			],
			"translation":[
				1.7759883403778076,
				1.8393995761871338,
				0.7282195091247559
			]
		},
		{
			"mesh":3,
			"name":"Eye.3",
			"scale":[
				1.842266321182251,
				1.842266321182251,
				1.842266321182251
			],
			"translation":[
				-1.1997637748718262,
				3.037245035171509,
				1.1449640989303589
			]
		}
	],
	"materials":[
		{
			"doubleSided":true,
			"name":"Material.002",
			"pbrMetallicRoughness":{
				"baseColorTexture":{
					"index":0
				},
				"metallicFactor":0,
				"roughnessFactor":0.3163636326789856
			}
		},
		{
			"doubleSided":true,
			"name":"Material.001",
			"pbrMetallicRoughness":{
				"baseColorTexture":{
					"index":1
				},
				"metallicFactor":0
			}
		}
	],
	"meshes":[
		{
			"name":"Sphere",
			"primitives":[
				{
					"attributes":{
						"POSITION":0,
						"NORMAL":1,
						"TEXCOORD_0":2
					},
					"indices":3,
					"material":0
				}
			]
		},
		{
			"name":"Sphere.001",
			"primitives":[
				{
					"attributes":{
						"POSITION":4,
						"NORMAL":5,
						"TEXCOORD_0":6
					},
					"indices":7,
					"material":1
				}
			]
		},
		{
			"name":"Sphere.002",
			"primitives":[
				{
					"attributes":{
						"POSITION":8,
						"NORMAL":9,
						"TEXCOORD_0":10
					},
					"indices":11,
					"material":1
				}
			]
		},
		{
			"name":"Sphere.003",
			"primitives":[
				{
					"attributes":{
						"POSITION":12,
						"NORMAL":13,
						"TEXCOORD_0":14
					},
					"indices":15,
					"material":1
				}
			]
		}
	],
	"textures":[
		{
			"sampler":0,
			"source":0
		},
		{
			"sampler":0,
			"source":1
		}
	],
	"images":[
		{
			"mimeType":"image/png",
			"name":"Enemy_Base_Color",
			"uri":"textures/Enemy_Base_Color.png"
		},
		{
			"mimeType":"image/png",
			"name":"Eye_Base_Color",
			"uri":"textures/Eye_Base_Color.png"
		}
	],
	"accessors":[
		{
			"bufferView":0,
			"componentType":5126,
			"count":892,
			"max":[
				1.5146480798721313,
				1.2380225658416748,
				1.4505550861358643
			],
			"min":[
				-1.454617977142334,
				-1.3721816539764404,
				-1.5496554374694824
			],
			"type":"VEC3"
		},
		{
			"bufferView":1,
			"componentType":5126,
			"count":892,
			"type":"VEC3"
		},
		{
			"bufferView":2,
			"componentType":5126,
			"count":892,
			"type":"VEC2"
		},
		{
			"bufferView":3,
			"componentType":5123,
			"count":3648,
			"type":"SCALAR"
		},
		{
			"bufferView":4,
			"componentType":5126,
			"count":55,
			"max":[
				0.14971250295639038,
				0.12384605407714844,
				0.12148255109786987
			],
			"min":[
				-0.22093050181865692,
				-0.18524372577667236,
				-0.19448322057724
			],
			"type":"VEC3"
		},
		{
			"bufferView":5,
			"componentType":5126,
			"count":55,
			"type":"VEC3"
		},
		{
			"bufferView":6,
			"componentType":5126,
			"count":55,
			"type":"VEC2"
		},
		{
			"bufferView":7,
			"componentType":5123,
			"count":216,
			"type":"SCALAR"
		},
		{
			"bufferView":8,
			"componentType":5126,
			"count":55,
			"max":[
				0.12665152549743652,
				0.17818033695220947,
				0.12888103723526
			],
			"min":[
				-0.208834707736969,
				-0.1877412050962448,
				-0.18627630174160004
			],
			"type":"VEC3"
		},
		{
			"bufferView":9,
			"componentType":5126,
			"count":55,
			"type":"VEC3"
		},
		{
			"bufferView":10,
			"componentType":5126,
			"count":55,
			"type":"VEC2"
		},
		{
			"bufferView":11,
			"componentType":5123,
			"count":216,
			"type":"SCALAR"
		},
		{
			"bufferView":12,
			"componentType":5126,
			"count":55,
			"max":[
				0.21503567695617676,
				0.19191280007362366,
				0.13160783052444458
			],
			"min":[
				-0.12609940767288208,
				-0.1947442889213562,
				-0.2188166081905365
			],
			"type":"VEC3"
		},
		{
			"bufferView":13,
			"componentType":5126,
			"count":55,
			"type":"VEC3"
		},
		{
			"bufferView":14,
			"componentType":5126,
			"count":55,
			"type":"VEC2"
		},
		{
			"bufferView":15,
			"componentType":5123,
			"count":216,
			"type":"SCALAR"
		}
	],
	"bufferViews":[
		{
			"buffer":0,
			"byteLength":10704,
			"byteOffset":0,
			"target":34962
		},
		{
			"buffer":0,
			"byteLength":10704,
			"byteOffset":10704,
			"target":34962
		},
		{
			"buffer":0,
			"byteLength":7136,
			"byteOffset":21408,
			"target":34962
		},
		{
			"buffer":0,
			"byteLength":7296,
			"byteOffset":28544,
			"target":34963
		},
		{
			"buffer":0,
			"byteLength":660,
			"byteOffset":35840,
			"target":34962
		},
		{
			"buffer":0,
			"byteLength":660,
			"byteOffset":36500,
			"target":34962
		},
		{
			"buffer":0,
			"byteLength":440,
			"byteOffset":37160,
			"target":34962
		},
		{
			"buffer":0,
			"byteLength":432,
			"byteOffset":37600,
			"target":34963
		},
		{
			"buffer":0,
			"byteLength":660,
			"byteOffset":38032,
			"target":34962
		},
		{
			"buffer":0,
			"byteLength":660,
			"byteOffset":38692,
			"target":34962
		},
		{
			"buffer":0,
			"byteLength":440,
			"byteOffset":39352,
			"target":34962
		},
		{
			"buffer":0,
			"byteLength":432,
			"byteOffset":39792,
			"target":34963
		},
		{
			"buffer":0,
			"byteLength":660,
			"byteOffset":40224,
			"target":34962
		},
		{
			"buffer":0,
			"byteLength":660,
			"byteOffset":40884,
			"target":34962
		},
		{
			"buffer":0,
			"byteLength":440,
			"byteOffset":41544,
			"target":34962
		},
		{
			"buffer":0,
			"byteLength":432,
			"byteOffset":41984,
			"target":34963
		}
	],
	"samplers":[
		{
			"magFilter":9729,
			"minFilter":9987
		}
	],
	"buffers":[
		{
			"byteLength":42416,
			"uri":"redball_ghost.bin"
		}
	]
}
