{
	"asset":{
		"generator":"Khronos glTF Blender I/O v4.5.47",
		"version":"2.0"
	},
	"scene":0,
	"scenes":[
		{
			"name":"Scene",
			"nodes":[
				0,
				1,
				2,
				3,
				4,
				5
			]
		}
	],
	"nodes":[
		{
			"mesh":0,
			"name":"Sphere"
		},
		{
			"mesh":1,
			"name":"Sphere.001",
			"scale":[
				0.20214086771011353,
				0.20214086771011353,
				0.20214086771011353
			],
			"translation":[
				0.5920389890670776,
				0.23715752363204956,
				0.8340842723846436
			]
		},
		{
			"mesh":2,
			"name":"Sphere.002",
			"scale":[
				0.20214086771011353,
				0.20214086771011353,
				0.20214086771011353
			],
			"translation":[
				-0.5920392274856567,
				0.23715752363204956,
				0.8340842723846436
			]
		},
		{
			"mesh":3,
			"name":"Sphere.003",
			"scale":[
				0.09749525785446167,
				0.09749525785446167,
				0.09749525785446167
			],
			"translation":[
				-0.6413101553916931,
				0.24832555651664734,
				1.0137317180633545
			]
		},
		{
			"mesh":4,
			"name":"Sphere.004",
			"scale":[
				0.09749525785446167,
				0.09749525785446167,
				0.09749525785446167
			],
			"translation":[
				0.6413099765777588,
				0.24832555651664734,
				1.0137317180633545
			]
		},
		{
			"mesh":5,
			"name":"Cube",
			"scale":[
				1,
				0.1206861063838005,
				0.2189064770936966
			],
			"translation":[
				0,
				0.4141785502433777,
				0.8557136654853821
			]
		}
	],
	"materials":[
		{
			"doubleSided":true,
			"name":"Material.001",
			"pbrMetallicRoughness":{
				"baseColorFactor":[
					0.8002825975418091,
					0.004276726394891739,
					0,
					1
				],
				"metallicFactor":0
			}
		},
		{
			"doubleSided":true,
			"name":"Material.003",
			"pbrMetallicRoughness":{
				"baseColorFactor":[
					0.800000011920929,
					0.800000011920929,
					0.800000011920929,
					1
				],
				"metallicFactor":0
			}
		},
		{
			"doubleSided":true,
			"name":"Material.004",
			"pbrMetallicRoughness":{
				"baseColorFactor":[
					0.800000011920929,
					0.800000011920929,
					0.800000011920929,
					1
				],
				"metallicFactor":0
			}
		},
		{
			"doubleSided":true,
			"name":"Material.005",
			"pbrMetallicRoughness":{
				"baseColorFactor":[
					0,
					0,
					0,
					1
				],
				"metallicFactor":0
			}
		},
		{
			"doubleSided":true,
			"name":"Material.006",
			"pbrMetallicRoughness":{
				"baseColorFactor":[
					0,
					0,
					0,
					1
				],
				"metallicFactor":0
			}
		}
	],
	"meshes":[
		{
			"name":"Sphere",
			"primitives":[
				{
					"attributes":{
						"POSITION":0,
						"NORMAL":1,
						"TEXCOORD_0":2
					},
					"indices":3,
					"material":0
				}
			]
		},
		{
			"name":"Sphere.003",
			"primitives":[
				{
					"attributes":{
						"POSITION":4,
						"NORMAL":5,
						"TEXCOORD_0":6
					},
					"indices":7,
					"material":1
				}
			]
		},
		{
			"name":"Sphere.005",
			"primitives":[
				{
					"attributes":{
						"POSITION":8,
						"NORMAL":9,
						"TEXCOORD_0":10
					},
					"indices":7,
					"material":2
				}
			]
		},
		{
			"name":"Sphere.006",
			"primitives":[
				{
					"attributes":{
						"POSITION":11,
						"NORMAL":12,
						"TEXCOORD_0":13
					},
					"indices":14,
					"material":3
				}
			]
		},
		{
			"name":"Sphere.007",
			"primitives":[
				{
					"attributes":{
						"POSITION":15,
						"NORMAL":16,
						"TEXCOORD_0":17
					},
					"indices":14,
					"material":4
				}
			]
		},
		{
			"name":"Cube.001",
			"primitives":[
				{
					"attributes":{
						"POSITION":18,
						"NORMAL":19,
						"TEXCOORD_0":20
					},
					"indices":21,
					"material":3
				}
			]
		}
	],
	"accessors":[
		{
			"bufferView":0,
			"componentType":5126,
			"count":992,
			"max":[
				1,
				1,
				1
			],
			"min":[
				-0.9999999403953552,
				-1,
				-0.9999999403953552
			],
			"type":"VEC3"
		},
		{
			"bufferView":1,
			"componentType":5126,
			"count":992,
			"type":"VEC3"
		},
		{
			"bufferView":2,
			"componentType":5126,
			"count":992,
			"type":"VEC2"
		},
		{
			"bufferView":3,
			"componentType":5123,
			"count":1440,
			"type":"SCALAR"
		},
		{
			"bufferView":4,
			"componentType":5126,
			"count":90,
			"max":[
				0.9045085310935974,
				1,
				0.7694209218025208
			],
			"min":[
				-0.9045085906982422,
				-1,
				-0.9510565400123596
			],
			"type":"VEC3"
		},
		{
			"bufferView":5,
			"componentType":5126,
			"count":90,
			"type":"VEC3"
		},
		{
			"bufferView":6,
			"componentType":5126,
			"count":90,
			"type":"VEC2"
		},
		{
			"bufferView":7,
			"componentType":5123,
			"count":120,
			"type":"SCALAR"
		},
		{
			"bufferView":8,
			"componentType":5126,
			"count":90,
			"max":[
				0.9045085310935974,
				1,
				0.7694209218025208
			],
			"min":[
				-0.9045085906982422,
				-1,
				-0.9510565400123596
			],
			"type":"VEC3"
		},
		{
			"bufferView":9,
			"componentType":5126,
			"count":90,
			"type":"VEC3"
		},
		{
			"bufferView":10,
			"componentType":5126,
			"count":90,
			"type":"VEC2"
		},
		{
			"bufferView":11,
			"componentType":5126,
			"count":30,
			"max":[
				0.75,
				0.9999996423721313,
				0.4330127537250519
			],
			"min":[
				-0.7500001192092896,
				-1,
				-0.866025447845459
			],
			"type":"VEC3"
		},
		{
			"bufferView":12,
			"componentType":5126,
			"count":30,
			"type":"VEC3"
		},
		{
			"bufferView":13,
			"componentType":5126,
			"count":30,
			"type":"VEC2"
		},
		{
			"bufferView":14,
			"componentType":5123,
			"count":36,
			"type":"SCALAR"
		},
		{
			"bufferView":15,
			"componentType":5126,
			"count":30,
			"max":[
				0.75,
				0.9999996423721313,
				0.4330127537250519
			],
			"min":[
				-0.7500001192092896,
				-1,
				-0.866025447845459
			],
			"type":"VEC3"
		},
		{
			"bufferView":16,
			"componentType":5126,
			"count":30,
			"type":"VEC3"
		},
		{
			"bufferView":17,
			"componentType":5126,
			"count":30,
			"type":"VEC2"
		},
		{
			"bufferView":18,
			"componentType":5126,
			"count":24,
			"max":[
				1,
				1,
				1
			],
			"min":[
				-1,
				-1,
				-1
			],
			"type":"VEC3"
		},
		{
			"bufferView":19,
			"componentType":5126,
			"count":24,
			"type":"VEC3"
		},
		{
			"bufferView":20,
			"componentType":5126,
			"count":24,
			"type":"VEC2"
		},
		{
			"bufferView":21,
			"componentType":5123,
			"count":36,
			"type":"SCALAR"
		}
	],
	"bufferViews":[
		{
			"buffer":0,
			"byteLength":11904,
			"byteOffset":0,
			"target":34962
		},
		{
			"buffer":0,
			"byteLength":11904,
			"byteOffset":11904,
			"target":34962
		},
		{
			"buffer":0,
			"byteLength":7936,
			"byteOffset":23808,
			"target":34962
		},
		{
			"buffer":0,
			"byteLength":2880,
			"byteOffset":31744,
			"target":34963
		},
		{
			"buffer":0,
			"byteLength":1080,
			"byteOffset":34624,
			"target":34962
		},
		{
			"buffer":0,
			"byteLength":1080,
			"byteOffset":35704,
			"target":34962
		},
		{
			"buffer":0,
			"byteLength":720,
			"byteOffset":36784,
			"target":34962
		},
		{
			"buffer":0,
			"byteLength":240,
			"byteOffset":37504,
			"target":34963
		},
		{
			"buffer":0,
			"byteLength":1080,
			"byteOffset":37744,
			"target":34962
		},
		{
			"buffer":0,
			"byteLength":1080,
			"byteOffset":38824,
			"target":34962
		},
		{
			"buffer":0,
			"byteLength":720,
			"byteOffset":39904,
			"target":34962
		},
		{
			"buffer":0,
			"byteLength":360,
			"byteOffset":40624,
			"target":34962
		},
		{
			"buffer":0,
			"byteLength":360,
			"byteOffset":40984,
			"target":34962
		},
		{
			"buffer":0,
			"byteLength":240,
			"byteOffset":41344,
			"target":34962
		},
		{
			"buffer":0,
			"byteLength":72,
			"byteOffset":41584,
			"target":34963
		},
		{
			"buffer":0,
			"byteLength":360,
			"byteOffset":41656,
			"target":34962
		},
		{
			"buffer":0,
			"byteLength":360,
			"byteOffset":42016,
			"target":34962
		},
		{
			"buffer":0,
			"byteLength":240,
			"byteOffset":42376,
			"target":34962
		},
		{
			"buffer":0,
			"byteLength":288,
			"byteOffset":42616,
			"target":34962
		},
		{
			"buffer":0,
			"byteLength":288,
			"byteOffset":42904,
			"target":34962
		},
		{
			"buffer":0,
			"byteLength":192,
			"byteOffset":43192,
			"target":34962
		},
		{
			"buffer":0,
			"byteLength":72,
			"byteOffset":43384,
			"target":34963
		}
	],
	"buffers":[
		{
			"byteLength":43456,
			"uri":"redball_default.bin"
		}
	]
}
